<?xml version="1.0" encoding="utf-8"?>
<!-- Generator: Adobe Illustrator 16.0.4, SVG Export Plug-In . SVG Version: 6.00 Build 0)  -->
<!DOCTYPE svg PUBLIC "-//W3C//DTD SVG 1.1//EN" "http://www.w3.org/Graphics/SVG/1.1/DTD/svg11.dtd">
<svg version="1.1" id="Layer_1" xmlns="http://www.w3.org/2000/svg" xmlns:xlink="http://www.w3.org/1999/xlink" x="0px" y="0px"
	 width="97px" height="75px" viewBox="0 0 97 75" enable-background="new 0 0 97 75" xml:space="preserve">
<g>
	<path fill="#1A171B" d="M10.786,34.365c-2.539-0.92-4.028-1.486-4.028-3.064c0-1.445,1.139-2.275,3.635-2.275
		c2.539,0,5.078,0.83,6.479,1.486v-5.777c-1.531-0.568-3.983-1.227-7.004-1.227c-5.691,0-9.851,2.541-9.851,8.057
		c0,4.555,2.584,6.655,5.34,7.838c4.204,1.836,6.086,1.879,6.086,3.98c0,1.578-1.271,2.539-4.158,2.539
		c-2.714,0-5.21-0.961-7.224-1.926v5.91c2.188,0.965,4.903,1.576,8.45,1.576c5.69,0,10.068-2.846,10.068-8.406
		C18.579,37.474,14.945,35.855,10.786,34.365z"/>
	<path fill="#1A171B" d="M96.908,31.664c-0.062-1.404-0.131-2.479-0.258-3.842c-0.211-2.268-0.521-4.434-0.957-6.484
		c-0.088-0.41-0.059-0.271-0.148-0.68c-1.123-4.865-2.777-8.523-5.629-11.615c-1.182-1.285-2.533-2.393-4.066-3.357
		c-0.307-0.191-0.725-0.439-1.047-0.619C84.48,4.888,84.59,4.945,84.26,4.773c-0.656-0.346-1.57-0.771-2.293-1.066
		c-1.438-0.592-2.836-1.055-4.459-1.488c-4.082-1.096-7.852-1.625-12.619-1.963c-3.322-0.236-6.221-0.303-9.539-0.215
		c-0.473,0.014-1.098,0.033-1.57,0.055c-0.936,0.041-1.398,0.068-2.32,0.137c-1.842,0.133-3.48,0.309-5.208,0.572
		c-3.019,0.465-5.411,1.037-7.928,1.984c-1.795,0.68-3.423,1.498-4.891,2.49C33.14,5.478,33.238,5.41,32.95,5.615
		c-0.574,0.412-1.293,1-1.805,1.473c-3.956,3.598-6.228,9.717-7.504,16.77h6.219v18.092v9.184h-7.005
		c1.553,10.307,5.798,17.316,15.512,20.531c3.381,1.232,7.042,2.006,11.196,2.533c11.119,1.312,21.82,1.186,30.609-1.859
		c4.76-1.699,7.76-3.812,10.465-7.607c1.445-2.035,2.676-4.646,3.551-7.357C96.67,49.6,97.283,41.117,96.908,31.664z M59.621,41.932
		c-1.355,4.979-5.268,9.201-13.254,9.201h-9.808v-9.191V23.904h9.938c10.027,0,13.705,6.564,13.705,13.615
		C60.201,38.998,60.014,40.494,59.621,41.932z M89.318,32.328v0.537v3.836v1.663v11.705v1.086h-3.031h-3.709h-0.572l-2.518-4.049
		l-0.701-1.123l-2.51-4.041l-2.766-4.446c-0.736-1.164-1.598-2.59-2.182-3.758c-0.076-0.146-0.162-0.307-0.225-0.445
		c0.002,0.1,0.008,0.207,0.012,0.305c0.045,1.166,0.117,2.51,0.117,3.68v4.659v9.219h-6.041v-9.223V29.708v-1.234V28.15v-3.152
		v-1.119h3.67h2.447h0.971h0.135l1.822,2.92c2.096,3.178,4.1,6.373,5.928,9.502l0.744,1.195c0.41,0.68,0.84,1.432,1.24,2.168
		c0.451,0.834,0.867,1.646,1.168,2.297c-0.086-1.227-0.043-3.107-0.043-4.247v-3.449V23.878h0.164h0.246h0.494h2.277h2.861V32.328z"
		/>
	<path fill="#1A171B" d="M45.971,29.417h-2.583v12.518v3.594h2.32c3.803,0,5.743-1.398,6.653-3.598
		c0.516-1.246,0.703-2.75,0.703-4.413C53.064,32.878,51.707,29.417,45.971,29.417z"/>
</g>
</svg>
